<mxfile host="Electron" modified="2023-09-12T16:13:26.720Z" agent="Mozilla/5.0 (Windows NT 10.0; Win64; x64) AppleWebKit/537.36 (KHTML, like Gecko) draw.io/21.1.2 Chrome/106.0.5249.199 Electron/21.4.3 Safari/537.36" etag="Glp-ZkyfAIsrLPmsE92A" version="21.1.2" type="device" pages="3">
  <diagram name="lin_sep" id="q0x5deBsIlBljOQwGWtM">
    <mxGraphModel dx="1418" dy="820" grid="1" gridSize="10" guides="1" tooltips="1" connect="1" arrows="1" fold="1" page="1" pageScale="1" pageWidth="850" pageHeight="1100" math="1" shadow="0">
      <root>
        <mxCell id="0" />
        <mxCell id="1" parent="0" />
        <mxCell id="rttQS9sh0l63vSe90RzF-2" value="" style="rounded=0;whiteSpace=wrap;html=1;strokeColor=none;" parent="1" vertex="1">
          <mxGeometry x="60" y="30" width="610" height="440" as="geometry" />
        </mxCell>
        <mxCell id="BOIYHFkHDjg6UM0vk6fN-1" value="" style="endArrow=classic;html=1;rounded=0;strokeWidth=3;" parent="1" edge="1">
          <mxGeometry width="50" height="50" relative="1" as="geometry">
            <mxPoint x="100" y="440" as="sourcePoint" />
            <mxPoint x="660" y="440" as="targetPoint" />
          </mxGeometry>
        </mxCell>
        <mxCell id="BOIYHFkHDjg6UM0vk6fN-2" value="" style="endArrow=classic;html=1;rounded=0;strokeWidth=3;" parent="1" edge="1">
          <mxGeometry width="50" height="50" relative="1" as="geometry">
            <mxPoint x="100" y="440" as="sourcePoint" />
            <mxPoint x="100" y="40" as="targetPoint" />
          </mxGeometry>
        </mxCell>
        <mxCell id="BOIYHFkHDjg6UM0vk6fN-3" value="" style="ellipse;whiteSpace=wrap;html=1;aspect=fixed;fillColor=#f8cecc;strokeColor=#b85450;" parent="1" vertex="1">
          <mxGeometry x="260" y="340" width="20" height="20" as="geometry" />
        </mxCell>
        <mxCell id="BOIYHFkHDjg6UM0vk6fN-4" value="" style="ellipse;whiteSpace=wrap;html=1;aspect=fixed;fillColor=#f8cecc;strokeColor=#b85450;" parent="1" vertex="1">
          <mxGeometry x="180" y="240" width="20" height="20" as="geometry" />
        </mxCell>
        <mxCell id="BOIYHFkHDjg6UM0vk6fN-5" value="" style="ellipse;whiteSpace=wrap;html=1;aspect=fixed;fillColor=#f8cecc;strokeColor=#b85450;" parent="1" vertex="1">
          <mxGeometry x="290" y="380" width="20" height="20" as="geometry" />
        </mxCell>
        <mxCell id="BOIYHFkHDjg6UM0vk6fN-6" value="" style="ellipse;whiteSpace=wrap;html=1;aspect=fixed;fillColor=#f8cecc;strokeColor=#b85450;" parent="1" vertex="1">
          <mxGeometry x="200" y="190" width="20" height="20" as="geometry" />
        </mxCell>
        <mxCell id="BOIYHFkHDjg6UM0vk6fN-7" value="" style="ellipse;whiteSpace=wrap;html=1;aspect=fixed;fillColor=#f8cecc;strokeColor=#b85450;" parent="1" vertex="1">
          <mxGeometry x="245" y="250" width="20" height="20" as="geometry" />
        </mxCell>
        <mxCell id="BOIYHFkHDjg6UM0vk6fN-9" value="" style="ellipse;whiteSpace=wrap;html=1;aspect=fixed;fillColor=#f8cecc;strokeColor=#b85450;" parent="1" vertex="1">
          <mxGeometry x="190" y="380" width="20" height="20" as="geometry" />
        </mxCell>
        <mxCell id="BOIYHFkHDjg6UM0vk6fN-11" value="" style="whiteSpace=wrap;html=1;aspect=fixed;fillColor=#dae8fc;strokeColor=#6c8ebf;" parent="1" vertex="1">
          <mxGeometry x="400" y="130" width="20" height="20" as="geometry" />
        </mxCell>
        <mxCell id="BOIYHFkHDjg6UM0vk6fN-13" value="" style="whiteSpace=wrap;html=1;aspect=fixed;fillColor=#dae8fc;strokeColor=#6c8ebf;" parent="1" vertex="1">
          <mxGeometry x="490" y="200" width="20" height="20" as="geometry" />
        </mxCell>
        <mxCell id="BOIYHFkHDjg6UM0vk6fN-14" value="" style="whiteSpace=wrap;html=1;aspect=fixed;fillColor=#dae8fc;strokeColor=#6c8ebf;" parent="1" vertex="1">
          <mxGeometry x="330" y="120" width="20" height="20" as="geometry" />
        </mxCell>
        <mxCell id="BOIYHFkHDjg6UM0vk6fN-15" value="" style="whiteSpace=wrap;html=1;aspect=fixed;fillColor=#dae8fc;strokeColor=#6c8ebf;" parent="1" vertex="1">
          <mxGeometry x="490" y="120" width="20" height="20" as="geometry" />
        </mxCell>
        <mxCell id="BOIYHFkHDjg6UM0vk6fN-16" value="" style="whiteSpace=wrap;html=1;aspect=fixed;fillColor=#dae8fc;strokeColor=#6c8ebf;" parent="1" vertex="1">
          <mxGeometry x="450" y="180" width="20" height="20" as="geometry" />
        </mxCell>
        <mxCell id="BOIYHFkHDjg6UM0vk6fN-17" value="" style="whiteSpace=wrap;html=1;aspect=fixed;fillColor=#dae8fc;strokeColor=#6c8ebf;" parent="1" vertex="1">
          <mxGeometry x="490" y="280" width="20" height="20" as="geometry" />
        </mxCell>
        <mxCell id="BOIYHFkHDjg6UM0vk6fN-20" value="" style="whiteSpace=wrap;html=1;aspect=fixed;fillColor=#dae8fc;strokeColor=#6c8ebf;" parent="1" vertex="1">
          <mxGeometry x="570" y="240" width="20" height="20" as="geometry" />
        </mxCell>
        <mxCell id="BOIYHFkHDjg6UM0vk6fN-21" value="" style="endArrow=none;html=1;rounded=0;strokeWidth=3;" parent="1" edge="1">
          <mxGeometry width="50" height="50" relative="1" as="geometry">
            <mxPoint x="230" y="100" as="sourcePoint" />
            <mxPoint x="500" y="410" as="targetPoint" />
          </mxGeometry>
        </mxCell>
        <mxCell id="BOIYHFkHDjg6UM0vk6fN-22" value="" style="endArrow=classic;html=1;rounded=0;strokeWidth=2;" parent="1" edge="1">
          <mxGeometry width="50" height="50" relative="1" as="geometry">
            <mxPoint x="314" y="197" as="sourcePoint" />
            <mxPoint x="344" y="177" as="targetPoint" />
          </mxGeometry>
        </mxCell>
        <mxCell id="BOIYHFkHDjg6UM0vk6fN-23" value="$$W$$" style="text;html=1;strokeColor=none;fillColor=none;align=center;verticalAlign=middle;whiteSpace=wrap;rounded=0;fontSize=20;" parent="1" vertex="1">
          <mxGeometry x="325" y="179" width="60" height="30" as="geometry" />
        </mxCell>
        <mxCell id="BOIYHFkHDjg6UM0vk6fN-24" value="$$h(x)=0$$" style="text;html=1;strokeColor=none;fillColor=none;align=center;verticalAlign=middle;whiteSpace=wrap;rounded=0;fontSize=20;" parent="1" vertex="1">
          <mxGeometry x="185" y="64" width="60" height="30" as="geometry" />
        </mxCell>
        <mxCell id="BOIYHFkHDjg6UM0vk6fN-25" value="$$h(x)&amp;gt;0$$" style="text;html=1;strokeColor=none;fillColor=none;align=center;verticalAlign=middle;whiteSpace=wrap;rounded=0;fontSize=20;" parent="1" vertex="1">
          <mxGeometry x="410" y="73" width="60" height="30" as="geometry" />
        </mxCell>
        <mxCell id="BOIYHFkHDjg6UM0vk6fN-26" value="$$h(x)&amp;lt;0$$" style="text;html=1;strokeColor=none;fillColor=none;align=center;verticalAlign=middle;whiteSpace=wrap;rounded=0;fontSize=20;" parent="1" vertex="1">
          <mxGeometry x="150" y="140" width="60" height="30" as="geometry" />
        </mxCell>
        <mxCell id="BOIYHFkHDjg6UM0vk6fN-29" value="$$x_1$$" style="text;html=1;strokeColor=none;fillColor=none;align=center;verticalAlign=middle;whiteSpace=wrap;rounded=0;fontSize=20;" parent="1" vertex="1">
          <mxGeometry x="600" y="440" width="60" height="30" as="geometry" />
        </mxCell>
        <mxCell id="BOIYHFkHDjg6UM0vk6fN-30" value="$$x_2$$" style="text;html=1;strokeColor=none;fillColor=none;align=center;verticalAlign=middle;whiteSpace=wrap;rounded=0;fontSize=20;" parent="1" vertex="1">
          <mxGeometry x="50" y="43" width="60" height="30" as="geometry" />
        </mxCell>
        <mxCell id="rttQS9sh0l63vSe90RzF-3" value="" style="endArrow=classic;html=1;rounded=0;startArrow=classic;startFill=1;strokeWidth=2;" parent="1" edge="1">
          <mxGeometry width="50" height="50" relative="1" as="geometry">
            <mxPoint x="100" y="440" as="sourcePoint" />
            <mxPoint x="350" y="240" as="targetPoint" />
          </mxGeometry>
        </mxCell>
        <mxCell id="rttQS9sh0l63vSe90RzF-4" value="" style="ellipse;whiteSpace=wrap;html=1;aspect=fixed;fillColor=#f8cecc;strokeColor=#b85450;" parent="1" vertex="1">
          <mxGeometry x="200" y="300" width="20" height="20" as="geometry" />
        </mxCell>
        <mxCell id="rttQS9sh0l63vSe90RzF-5" value="$$b$$" style="text;html=1;strokeColor=none;fillColor=none;align=center;verticalAlign=middle;whiteSpace=wrap;rounded=0;fontSize=20;" parent="1" vertex="1">
          <mxGeometry x="155" y="340" width="60" height="30" as="geometry" />
        </mxCell>
      </root>
    </mxGraphModel>
  </diagram>
  <diagram id="fosDxdSxTU-5wCudTI5M" name="phi-func">
    <mxGraphModel dx="1418" dy="820" grid="1" gridSize="10" guides="1" tooltips="1" connect="1" arrows="1" fold="1" page="1" pageScale="1" pageWidth="850" pageHeight="1100" math="1" shadow="0">
      <root>
        <mxCell id="0" />
        <mxCell id="1" parent="0" />
        <mxCell id="62L8b3x5dmMyN95yzrCK-1" value="" style="rounded=0;whiteSpace=wrap;html=1;strokeColor=none;" parent="1" vertex="1">
          <mxGeometry x="100" y="231.75" width="630" height="240" as="geometry" />
        </mxCell>
        <mxCell id="c45dzsYVhNb0zL6LFFw4-2" value="" style="endArrow=classic;html=1;rounded=0;strokeWidth=3;" parent="1" edge="1">
          <mxGeometry width="50" height="50" relative="1" as="geometry">
            <mxPoint x="313" y="440" as="sourcePoint" />
            <mxPoint x="333" y="440" as="targetPoint" />
          </mxGeometry>
        </mxCell>
        <mxCell id="c45dzsYVhNb0zL6LFFw4-6" value="" style="endArrow=none;html=1;rounded=0;strokeWidth=3;endFill=0;fillColor=#dae8fc;strokeColor=#6c8ebf;" parent="1" edge="1">
          <mxGeometry width="50" height="50" relative="1" as="geometry">
            <mxPoint x="120" y="440" as="sourcePoint" />
            <mxPoint x="180" y="440" as="targetPoint" />
          </mxGeometry>
        </mxCell>
        <mxCell id="c45dzsYVhNb0zL6LFFw4-4" value="" style="whiteSpace=wrap;html=1;aspect=fixed;fillColor=#dae8fc;strokeColor=#6c8ebf;" parent="1" vertex="1">
          <mxGeometry x="140" y="430" width="20" height="20" as="geometry" />
        </mxCell>
        <mxCell id="c45dzsYVhNb0zL6LFFw4-7" value="" style="endArrow=none;html=1;rounded=0;strokeWidth=3;endFill=0;fillColor=#f8cecc;strokeColor=#b85450;" parent="1" source="c45dzsYVhNb0zL6LFFw4-3" edge="1">
          <mxGeometry width="50" height="50" relative="1" as="geometry">
            <mxPoint x="180" y="440" as="sourcePoint" />
            <mxPoint x="260" y="440" as="targetPoint" />
          </mxGeometry>
        </mxCell>
        <mxCell id="c45dzsYVhNb0zL6LFFw4-8" value="$$x$$" style="text;html=1;strokeColor=none;fillColor=none;align=center;verticalAlign=middle;whiteSpace=wrap;rounded=0;fontSize=20;" parent="1" vertex="1">
          <mxGeometry x="310" y="410" width="60" height="30" as="geometry" />
        </mxCell>
        <mxCell id="c45dzsYVhNb0zL6LFFw4-9" value="" style="curved=1;endArrow=classic;html=1;rounded=0;fontSize=14;strokeWidth=3;" parent="1" edge="1">
          <mxGeometry width="50" height="50" relative="1" as="geometry">
            <mxPoint x="220" y="400" as="sourcePoint" />
            <mxPoint x="450" y="310" as="targetPoint" />
            <Array as="points">
              <mxPoint x="250" y="220" />
            </Array>
          </mxGeometry>
        </mxCell>
        <mxCell id="c45dzsYVhNb0zL6LFFw4-10" value="" style="endArrow=classic;html=1;rounded=0;strokeWidth=3;" parent="1" edge="1">
          <mxGeometry width="50" height="50" relative="1" as="geometry">
            <mxPoint x="460" y="439.75" as="sourcePoint" />
            <mxPoint x="700" y="439.75" as="targetPoint" />
          </mxGeometry>
        </mxCell>
        <mxCell id="c45dzsYVhNb0zL6LFFw4-11" value="" style="endArrow=classic;html=1;rounded=0;strokeWidth=3;" parent="1" edge="1">
          <mxGeometry width="50" height="50" relative="1" as="geometry">
            <mxPoint x="580" y="439.75" as="sourcePoint" />
            <mxPoint x="580" y="279.75" as="targetPoint" />
          </mxGeometry>
        </mxCell>
        <mxCell id="c45dzsYVhNb0zL6LFFw4-12" value="$$x$$" style="text;html=1;strokeColor=none;fillColor=none;align=center;verticalAlign=middle;whiteSpace=wrap;rounded=0;fontSize=20;" parent="1" vertex="1">
          <mxGeometry x="670" y="409.75" width="60" height="30" as="geometry" />
        </mxCell>
        <mxCell id="c45dzsYVhNb0zL6LFFw4-13" value="$$x^2$$" style="text;html=1;strokeColor=none;fillColor=none;align=center;verticalAlign=middle;whiteSpace=wrap;rounded=0;fontSize=20;" parent="1" vertex="1">
          <mxGeometry x="570" y="259.75" width="60" height="30" as="geometry" />
        </mxCell>
        <mxCell id="c45dzsYVhNb0zL6LFFw4-14" value="" style="endArrow=none;html=1;rounded=0;strokeWidth=3;dashed=1;" parent="1" edge="1">
          <mxGeometry width="50" height="50" relative="1" as="geometry">
            <mxPoint x="460" y="369.75" as="sourcePoint" />
            <mxPoint x="700" y="369.75" as="targetPoint" />
          </mxGeometry>
        </mxCell>
        <mxCell id="c45dzsYVhNb0zL6LFFw4-15" value="" style="endArrow=none;html=1;rounded=0;strokeWidth=3;endFill=0;fillColor=#f8cecc;strokeColor=#b85450;" parent="1" target="c45dzsYVhNb0zL6LFFw4-3" edge="1">
          <mxGeometry width="50" height="50" relative="1" as="geometry">
            <mxPoint x="180" y="440" as="sourcePoint" />
            <mxPoint x="260" y="440" as="targetPoint" />
          </mxGeometry>
        </mxCell>
        <mxCell id="c45dzsYVhNb0zL6LFFw4-3" value="" style="ellipse;whiteSpace=wrap;html=1;aspect=fixed;fillColor=#f8cecc;strokeColor=#b85450;" parent="1" vertex="1">
          <mxGeometry x="210" y="430" width="20" height="20" as="geometry" />
        </mxCell>
        <mxCell id="c45dzsYVhNb0zL6LFFw4-16" value="" style="endArrow=none;html=1;rounded=0;strokeWidth=3;" parent="1" edge="1">
          <mxGeometry width="50" height="50" relative="1" as="geometry">
            <mxPoint x="180" y="460" as="sourcePoint" />
            <mxPoint x="180" y="420" as="targetPoint" />
          </mxGeometry>
        </mxCell>
        <mxCell id="c45dzsYVhNb0zL6LFFw4-17" value="" style="endArrow=none;html=1;rounded=0;strokeWidth=3;fillColor=#dae8fc;strokeColor=#6c8ebf;" parent="1" edge="1">
          <mxGeometry width="50" height="50" relative="1" as="geometry">
            <mxPoint x="260" y="440" as="sourcePoint" />
            <mxPoint x="320" y="440" as="targetPoint" />
          </mxGeometry>
        </mxCell>
        <mxCell id="c45dzsYVhNb0zL6LFFw4-5" value="" style="whiteSpace=wrap;html=1;aspect=fixed;fillColor=#dae8fc;strokeColor=#6c8ebf;" parent="1" vertex="1">
          <mxGeometry x="280" y="430" width="20" height="20" as="geometry" />
        </mxCell>
        <mxCell id="c45dzsYVhNb0zL6LFFw4-18" value="" style="endArrow=none;html=1;rounded=0;strokeWidth=3;" parent="1" edge="1">
          <mxGeometry width="50" height="50" relative="1" as="geometry">
            <mxPoint x="260" y="460" as="sourcePoint" />
            <mxPoint x="260" y="420" as="targetPoint" />
          </mxGeometry>
        </mxCell>
        <mxCell id="c45dzsYVhNb0zL6LFFw4-20" value="" style="verticalLabelPosition=bottom;verticalAlign=top;html=1;shape=mxgraph.basic.arc;startAngle=0.5207802393875658;endAngle=0.9794252440875133;rotation=-90;strokeWidth=3;fillColor=#f8cecc;strokeColor=#b85450;" parent="1" vertex="1">
          <mxGeometry x="499.87" y="279.13" width="160" height="161.25" as="geometry" />
        </mxCell>
        <mxCell id="c45dzsYVhNb0zL6LFFw4-21" value="" style="ellipse;whiteSpace=wrap;html=1;aspect=fixed;fillColor=#f8cecc;strokeColor=#b85450;" parent="1" vertex="1">
          <mxGeometry x="570" y="430" width="20" height="20" as="geometry" />
        </mxCell>
        <mxCell id="c45dzsYVhNb0zL6LFFw4-25" value="" style="curved=1;endArrow=none;html=1;rounded=0;endFill=0;strokeWidth=3;fillColor=#dae8fc;strokeColor=#6c8ebf;" parent="1" edge="1">
          <mxGeometry width="50" height="50" relative="1" as="geometry">
            <mxPoint x="500" y="370.75" as="sourcePoint" />
            <mxPoint x="490" y="279.75" as="targetPoint" />
            <Array as="points">
              <mxPoint x="490" y="329.75" />
            </Array>
          </mxGeometry>
        </mxCell>
        <mxCell id="c45dzsYVhNb0zL6LFFw4-26" value="" style="curved=1;endArrow=none;html=1;rounded=0;endFill=0;strokeWidth=3;fillColor=#dae8fc;strokeColor=#6c8ebf;" parent="1" edge="1">
          <mxGeometry width="50" height="50" relative="1" as="geometry">
            <mxPoint x="659.87" y="371.13" as="sourcePoint" />
            <mxPoint x="670" y="279.75" as="targetPoint" />
            <Array as="points">
              <mxPoint x="670" y="329.75" />
            </Array>
          </mxGeometry>
        </mxCell>
        <mxCell id="c45dzsYVhNb0zL6LFFw4-27" value="" style="whiteSpace=wrap;html=1;aspect=fixed;fillColor=#dae8fc;strokeColor=#6c8ebf;" parent="1" vertex="1">
          <mxGeometry x="481" y="309.75" width="20" height="20" as="geometry" />
        </mxCell>
        <mxCell id="c45dzsYVhNb0zL6LFFw4-29" value="" style="whiteSpace=wrap;html=1;aspect=fixed;fillColor=#dae8fc;strokeColor=#6c8ebf;" parent="1" vertex="1">
          <mxGeometry x="653" y="341.75" width="20" height="20" as="geometry" />
        </mxCell>
        <mxCell id="c45dzsYVhNb0zL6LFFw4-30" value="$$\left(\begin{matrix}x\\x^2\end{matrix}\right)$$" style="text;html=1;strokeColor=none;fillColor=none;align=center;verticalAlign=middle;whiteSpace=wrap;rounded=0;fontSize=20;" parent="1" vertex="1">
          <mxGeometry x="280" y="268.12" width="90" height="103.25" as="geometry" />
        </mxCell>
      </root>
    </mxGraphModel>
  </diagram>
  <diagram id="LOXdps-pOQwAJrgBO2jo" name="SV">
    <mxGraphModel dx="978" dy="566" grid="1" gridSize="10" guides="1" tooltips="1" connect="1" arrows="1" fold="1" page="1" pageScale="1" pageWidth="850" pageHeight="1100" math="1" shadow="0">
      <root>
        <mxCell id="0" />
        <mxCell id="1" parent="0" />
        <mxCell id="IUXIm_zQ-guatW8JUdFX-1" value="" style="rounded=0;whiteSpace=wrap;html=1;strokeColor=none;" parent="1" vertex="1">
          <mxGeometry x="60" y="30" width="610" height="450" as="geometry" />
        </mxCell>
        <mxCell id="IUXIm_zQ-guatW8JUdFX-33" value="" style="endArrow=none;html=1;rounded=0;strokeWidth=3;dashed=1;" parent="1" edge="1">
          <mxGeometry width="50" height="50" relative="1" as="geometry">
            <mxPoint x="140" y="130" as="sourcePoint" />
            <mxPoint x="410" y="440" as="targetPoint" />
          </mxGeometry>
        </mxCell>
        <mxCell id="IUXIm_zQ-guatW8JUdFX-2" value="" style="endArrow=classic;html=1;rounded=0;strokeWidth=3;" parent="1" edge="1">
          <mxGeometry width="50" height="50" relative="1" as="geometry">
            <mxPoint x="100" y="440" as="sourcePoint" />
            <mxPoint x="660" y="440" as="targetPoint" />
          </mxGeometry>
        </mxCell>
        <mxCell id="IUXIm_zQ-guatW8JUdFX-3" value="" style="endArrow=classic;html=1;rounded=0;strokeWidth=3;" parent="1" edge="1">
          <mxGeometry width="50" height="50" relative="1" as="geometry">
            <mxPoint x="100" y="440" as="sourcePoint" />
            <mxPoint x="100" y="40" as="targetPoint" />
          </mxGeometry>
        </mxCell>
        <mxCell id="IUXIm_zQ-guatW8JUdFX-4" value="" style="ellipse;whiteSpace=wrap;html=1;aspect=fixed;fillColor=#f8cecc;strokeColor=#b85450;" parent="1" vertex="1">
          <mxGeometry x="260" y="340" width="20" height="20" as="geometry" />
        </mxCell>
        <mxCell id="IUXIm_zQ-guatW8JUdFX-5" value="" style="ellipse;whiteSpace=wrap;html=1;aspect=fixed;fillColor=#f8cecc;strokeColor=#b85450;" parent="1" vertex="1">
          <mxGeometry x="180" y="240" width="20" height="20" as="geometry" />
        </mxCell>
        <mxCell id="IUXIm_zQ-guatW8JUdFX-6" value="" style="ellipse;whiteSpace=wrap;html=1;aspect=fixed;fillColor=#f8cecc;strokeColor=#b85450;" parent="1" vertex="1">
          <mxGeometry x="290" y="380" width="20" height="20" as="geometry" />
        </mxCell>
        <mxCell id="IUXIm_zQ-guatW8JUdFX-7" value="" style="ellipse;whiteSpace=wrap;html=1;aspect=fixed;fillColor=#f8cecc;strokeColor=#b85450;" parent="1" vertex="1">
          <mxGeometry x="200" y="190" width="20" height="20" as="geometry" />
        </mxCell>
        <mxCell id="IUXIm_zQ-guatW8JUdFX-8" value="" style="ellipse;whiteSpace=wrap;html=1;aspect=fixed;fillColor=#f8cecc;strokeColor=#b85450;" parent="1" vertex="1">
          <mxGeometry x="245" y="250" width="20" height="20" as="geometry" />
        </mxCell>
        <mxCell id="IUXIm_zQ-guatW8JUdFX-9" value="" style="ellipse;whiteSpace=wrap;html=1;aspect=fixed;fillColor=#f8cecc;strokeColor=#b85450;" parent="1" vertex="1">
          <mxGeometry x="190" y="380" width="20" height="20" as="geometry" />
        </mxCell>
        <mxCell id="IUXIm_zQ-guatW8JUdFX-10" value="" style="whiteSpace=wrap;html=1;aspect=fixed;fillColor=#dae8fc;strokeColor=#6c8ebf;" parent="1" vertex="1">
          <mxGeometry x="400" y="130" width="20" height="20" as="geometry" />
        </mxCell>
        <mxCell id="IUXIm_zQ-guatW8JUdFX-11" value="" style="whiteSpace=wrap;html=1;aspect=fixed;fillColor=#dae8fc;strokeColor=#6c8ebf;" parent="1" vertex="1">
          <mxGeometry x="490" y="200" width="20" height="20" as="geometry" />
        </mxCell>
        <mxCell id="IUXIm_zQ-guatW8JUdFX-12" value="" style="whiteSpace=wrap;html=1;aspect=fixed;fillColor=#dae8fc;strokeColor=#6c8ebf;" parent="1" vertex="1">
          <mxGeometry x="330" y="120" width="20" height="20" as="geometry" />
        </mxCell>
        <mxCell id="IUXIm_zQ-guatW8JUdFX-13" value="" style="whiteSpace=wrap;html=1;aspect=fixed;fillColor=#dae8fc;strokeColor=#6c8ebf;" parent="1" vertex="1">
          <mxGeometry x="490" y="120" width="20" height="20" as="geometry" />
        </mxCell>
        <mxCell id="IUXIm_zQ-guatW8JUdFX-14" value="" style="whiteSpace=wrap;html=1;aspect=fixed;fillColor=#dae8fc;strokeColor=#6c8ebf;" parent="1" vertex="1">
          <mxGeometry x="450" y="180" width="20" height="20" as="geometry" />
        </mxCell>
        <mxCell id="IUXIm_zQ-guatW8JUdFX-15" value="" style="whiteSpace=wrap;html=1;aspect=fixed;fillColor=#dae8fc;strokeColor=#6c8ebf;" parent="1" vertex="1">
          <mxGeometry x="490" y="280" width="20" height="20" as="geometry" />
        </mxCell>
        <mxCell id="IUXIm_zQ-guatW8JUdFX-16" value="" style="whiteSpace=wrap;html=1;aspect=fixed;fillColor=#dae8fc;strokeColor=#6c8ebf;" parent="1" vertex="1">
          <mxGeometry x="570" y="240" width="20" height="20" as="geometry" />
        </mxCell>
        <mxCell id="IUXIm_zQ-guatW8JUdFX-17" value="" style="endArrow=none;html=1;rounded=0;strokeWidth=3;" parent="1" edge="1">
          <mxGeometry width="50" height="50" relative="1" as="geometry">
            <mxPoint x="230" y="100" as="sourcePoint" />
            <mxPoint x="500" y="410" as="targetPoint" />
          </mxGeometry>
        </mxCell>
        <mxCell id="IUXIm_zQ-guatW8JUdFX-18" value="" style="endArrow=classic;html=1;rounded=0;strokeWidth=2;" parent="1" edge="1">
          <mxGeometry width="50" height="50" relative="1" as="geometry">
            <mxPoint x="314" y="197" as="sourcePoint" />
            <mxPoint x="344" y="177" as="targetPoint" />
          </mxGeometry>
        </mxCell>
        <mxCell id="IUXIm_zQ-guatW8JUdFX-19" value="$$W$$" style="text;html=1;strokeColor=none;fillColor=none;align=center;verticalAlign=middle;whiteSpace=wrap;rounded=0;fontSize=20;" parent="1" vertex="1">
          <mxGeometry x="325" y="179" width="60" height="30" as="geometry" />
        </mxCell>
        <mxCell id="IUXIm_zQ-guatW8JUdFX-20" value="$$h(x)=0$$" style="text;html=1;strokeColor=none;fillColor=none;align=center;verticalAlign=middle;whiteSpace=wrap;rounded=0;fontSize=20;" parent="1" vertex="1">
          <mxGeometry x="185" y="64" width="60" height="30" as="geometry" />
        </mxCell>
        <mxCell id="IUXIm_zQ-guatW8JUdFX-21" value="$$h(x)&amp;gt;0$$" style="text;html=1;strokeColor=none;fillColor=none;align=center;verticalAlign=middle;whiteSpace=wrap;rounded=0;fontSize=20;" parent="1" vertex="1">
          <mxGeometry x="410" y="73" width="60" height="30" as="geometry" />
        </mxCell>
        <mxCell id="IUXIm_zQ-guatW8JUdFX-23" value="$$x_1$$" style="text;html=1;strokeColor=none;fillColor=none;align=center;verticalAlign=middle;whiteSpace=wrap;rounded=0;fontSize=20;" parent="1" vertex="1">
          <mxGeometry x="600" y="440" width="60" height="30" as="geometry" />
        </mxCell>
        <mxCell id="IUXIm_zQ-guatW8JUdFX-24" value="$$x_2$$" style="text;html=1;strokeColor=none;fillColor=none;align=center;verticalAlign=middle;whiteSpace=wrap;rounded=0;fontSize=20;" parent="1" vertex="1">
          <mxGeometry x="50" y="43" width="60" height="30" as="geometry" />
        </mxCell>
        <mxCell id="IUXIm_zQ-guatW8JUdFX-25" value="" style="endArrow=classic;html=1;rounded=0;startArrow=classic;startFill=1;strokeWidth=2;" parent="1" edge="1">
          <mxGeometry width="50" height="50" relative="1" as="geometry">
            <mxPoint x="100" y="440" as="sourcePoint" />
            <mxPoint x="350" y="240" as="targetPoint" />
          </mxGeometry>
        </mxCell>
        <mxCell id="IUXIm_zQ-guatW8JUdFX-26" value="" style="ellipse;whiteSpace=wrap;html=1;aspect=fixed;fillColor=#f8cecc;strokeColor=#b85450;" parent="1" vertex="1">
          <mxGeometry x="200" y="300" width="20" height="20" as="geometry" />
        </mxCell>
        <mxCell id="IUXIm_zQ-guatW8JUdFX-27" value="$$b$$" style="text;html=1;strokeColor=none;fillColor=none;align=center;verticalAlign=middle;whiteSpace=wrap;rounded=0;fontSize=20;" parent="1" vertex="1">
          <mxGeometry x="155" y="340" width="60" height="30" as="geometry" />
        </mxCell>
        <mxCell id="IUXIm_zQ-guatW8JUdFX-28" value="" style="ellipse;whiteSpace=wrap;html=1;aspect=fixed;fillColor=none;strokeWidth=3;" parent="1" vertex="1">
          <mxGeometry x="240" y="245" width="30" height="30" as="geometry" />
        </mxCell>
        <mxCell id="IUXIm_zQ-guatW8JUdFX-29" value="" style="ellipse;whiteSpace=wrap;html=1;aspect=fixed;fillColor=none;strokeWidth=3;" parent="1" vertex="1">
          <mxGeometry x="195" y="185" width="30" height="30" as="geometry" />
        </mxCell>
        <mxCell id="IUXIm_zQ-guatW8JUdFX-30" value="" style="ellipse;whiteSpace=wrap;html=1;aspect=fixed;fillColor=none;strokeWidth=3;" parent="1" vertex="1">
          <mxGeometry x="325" y="115" width="30" height="30" as="geometry" />
        </mxCell>
        <mxCell id="IUXIm_zQ-guatW8JUdFX-31" value="" style="ellipse;whiteSpace=wrap;html=1;aspect=fixed;fillColor=none;strokeWidth=3;" parent="1" vertex="1">
          <mxGeometry x="485" y="275" width="30" height="30" as="geometry" />
        </mxCell>
        <mxCell id="IUXIm_zQ-guatW8JUdFX-32" value="" style="endArrow=none;html=1;rounded=0;strokeWidth=3;dashed=1;" parent="1" edge="1">
          <mxGeometry width="50" height="50" relative="1" as="geometry">
            <mxPoint x="293" y="58" as="sourcePoint" />
            <mxPoint x="563" y="368" as="targetPoint" />
          </mxGeometry>
        </mxCell>
        <mxCell id="IUXIm_zQ-guatW8JUdFX-22" value="$$h(x)&amp;lt;0$$" style="text;html=1;strokeColor=none;fillColor=none;align=center;verticalAlign=middle;whiteSpace=wrap;rounded=0;fontSize=20;" parent="1" vertex="1">
          <mxGeometry x="130" y="215" width="60" height="30" as="geometry" />
        </mxCell>
        <mxCell id="UZXOcURZryCGI-JlyHjb-1" value="$$h(x)=+1$$" style="text;html=1;strokeColor=none;fillColor=none;align=center;verticalAlign=middle;whiteSpace=wrap;rounded=0;fontSize=20;" vertex="1" parent="1">
          <mxGeometry x="550" y="370" width="60" height="30" as="geometry" />
        </mxCell>
        <mxCell id="UZXOcURZryCGI-JlyHjb-4" value="" style="endArrow=classic;html=1;rounded=1;exitX=0.5;exitY=0;exitDx=0;exitDy=0;strokeWidth=2;" edge="1" parent="1" source="UZXOcURZryCGI-JlyHjb-1">
          <mxGeometry width="50" height="50" relative="1" as="geometry">
            <mxPoint x="600" y="380" as="sourcePoint" />
            <mxPoint x="530" y="330" as="targetPoint" />
            <Array as="points">
              <mxPoint x="580" y="350" />
            </Array>
          </mxGeometry>
        </mxCell>
        <mxCell id="UZXOcURZryCGI-JlyHjb-7" value="$$h(x)=-1$$" style="text;html=1;strokeColor=none;fillColor=none;align=center;verticalAlign=middle;whiteSpace=wrap;rounded=0;fontSize=20;" vertex="1" parent="1">
          <mxGeometry x="400" y="450" width="60" height="30" as="geometry" />
        </mxCell>
        <mxCell id="UZXOcURZryCGI-JlyHjb-8" value="" style="endArrow=classic;html=1;rounded=1;strokeWidth=2;" edge="1" parent="1" source="UZXOcURZryCGI-JlyHjb-7">
          <mxGeometry width="50" height="50" relative="1" as="geometry">
            <mxPoint x="430" y="441" as="sourcePoint" />
            <mxPoint x="380" y="410" as="targetPoint" />
            <Array as="points">
              <mxPoint x="430" y="421" />
            </Array>
          </mxGeometry>
        </mxCell>
      </root>
    </mxGraphModel>
  </diagram>
</mxfile>
